<?xml version="1.0" encoding="UTF-8"?>
<svg version="1.1" xmlns="http://www.w3.org/2000/svg" width="1154" height="216">
<path d="M0 0 C0.9199494 0.00184359 1.8398988 0.00368717 2.78772545 0.00558662 C3.84224403 0.0028373 4.89676262 0.00008797 5.98323631 -0.00274467 C7.14488808 0.00444588 8.30653984 0.01163643 9.50339317 0.01904488 C11.33262573 0.0186068 11.33262573 0.0186068 13.19881248 0.01815987 C16.5478569 0.01931658 19.8966564 0.02936458 23.24565744 0.04330778 C26.74370195 0.05578868 30.24174952 0.05698355 33.73981285 0.0593586 C40.36610533 0.06558116 46.99233201 0.08200242 53.61859548 0.10205758 C61.16141533 0.12439249 68.70423828 0.13540394 76.24708295 0.14544845 C91.76533778 0.16636801 107.28352692 0.201559 122.80173302 0.24609566 C121.58888187 3.35387013 120.40301291 6.08126722 118.48142052 8.81250191 C118.03306847 9.45606636 117.58471642 10.09963081 117.12277794 10.76269722 C116.64558311 11.4378437 116.16838829 12.11299019 115.67673302 12.80859566 C114.66950687 14.25210693 113.66300022 15.6961205 112.65720177 17.14062691 C111.91929405 18.19757759 111.91929405 18.19757759 111.16647911 19.27588081 C109.40151179 21.82387479 107.69229759 24.40640311 105.98923302 26.99609566 C101.84245126 33.25893065 97.5137835 39.3915633 93.16379356 45.51465034 C88.13730718 52.63580649 83.53187396 59.88809863 78.80173302 67.24609566 C118.40173302 67.57609566 158.00173302 67.90609566 198.80173302 68.24609566 C197.26478251 72.08847193 196.15764925 74.39856782 193.82126427 77.60937691 C190.77972846 81.86060552 187.80563389 86.14801321 184.87595177 90.47656441 C184.22144539 91.44253044 184.22144539 91.44253044 183.55371666 92.42801094 C182.65239516 93.75881777 181.75142887 95.08986525 180.85080528 96.42114449 C179.50276083 98.41360107 178.15332011 100.40510615 176.80368614 102.39648628 C171.90752181 109.62570237 167.04257771 116.87473514 162.2056942 124.1437397 C159.29445734 128.51575533 156.35307627 132.86436372 153.36423302 137.18359566 C152.91088585 137.84142036 152.45753868 138.49924507 151.99045372 139.17700386 C150.15299316 141.84301744 148.31294069 144.50722617 146.47067833 147.16992378 C139.00483955 157.9619072 131.69763888 168.8541738 124.43698692 179.78515816 C121.70565475 183.89561327 118.96634611 188.00074322 116.22751427 192.10620308 C114.29696609 195.00081066 112.36905102 197.89710662 110.44626427 200.79687691 C109.71794395 201.89386909 108.98962364 202.99086128 108.23923302 204.12109566 C107.59856895 205.08789253 106.95790489 206.05468941 106.29782677 207.05078316 C104.80173302 209.24609566 104.80173302 209.24609566 103.80173302 210.24609566 C101.9921243 210.34251063 100.17871173 210.36796963 98.36653709 210.36635017 C97.18718086 210.36772484 96.00782463 210.3690995 94.79273033 210.37051582 C93.48722221 210.36692055 92.1817141 210.36332527 90.83664513 210.35962105 C89.45720484 210.35933918 88.0777644 210.35949691 86.6983242 210.36006355 C82.94229183 210.36035154 79.18629113 210.35445471 75.43026614 210.3474896 C71.50913257 210.34125617 67.58799834 210.34065227 63.66686058 210.33946419 C56.23661691 210.33635084 48.80638788 210.32813741 41.37615067 210.3181147 C32.91921664 210.30695367 24.46228192 210.30144314 16.00534236 210.29641926 C-1.39586923 210.28595479 -18.79706656 210.26835529 -36.19826698 210.24609566 C-35.08787191 208.49852061 -33.97712668 206.75116804 -32.86623573 205.00390816 C-32.24772743 204.0308271 -31.62921913 203.05774605 -30.99196815 202.05517769 C-26.11013129 194.40982381 -20.91419698 187.01300141 -15.66140175 179.62011909 C-12.23208484 174.77157204 -8.98615523 169.84525328 -5.85061073 164.80078316 C-3.4308926 161.05965866 -0.77225502 157.50727733 1.90720177 153.94922066 C4.07922395 150.85017044 5.92413766 147.53188754 7.80173302 144.24609566 C-28.16826698 144.24609566 -64.13826698 144.24609566 -101.19826698 144.24609566 C-97.05904277 135.96764723 -91.71219731 128.48793869 -86.22951698 121.05468941 C-83.45567084 117.21931368 -80.85903428 113.27604754 -78.24904823 109.32812691 C-73.20650171 101.74989985 -67.958866 94.31292635 -62.696558 86.88647652 C-58.07022714 80.35693118 -53.52063149 73.79439164 -49.10842323 67.11718941 C-43.11770827 58.11274054 -36.83188907 49.31016568 -30.57912636 40.48706245 C-26.97756949 35.38966051 -23.50120929 30.22628409 -20.06545448 25.01562691 C-17.5080432 21.22231185 -14.80089808 17.54691349 -12.08889198 13.86328316 C-9.76563551 10.64720498 -7.58058933 7.35342598 -5.42482948 4.02343941 C-2.86993904 0.32128924 -2.86993904 0.32128924 0 0 Z " fill="#C77713" transform="translate(101.19826698303223,-0.2460956573486328)"/>
<path d="M0 0 C33.66 0.33 67.32 0.66 102 1 C100.46304949 4.84237627 99.35591623 7.15247217 97.01953125 10.36328125 C93.97799544 14.61450986 91.00390087 18.90191755 88.07421875 23.23046875 C87.41971237 24.19643478 87.41971237 24.19643478 86.75198364 25.18191528 C85.85066214 26.51272212 84.94969586 27.84376959 84.04907227 29.17504883 C82.70102782 31.16750542 81.3515871 33.15901049 80.00195312 35.15039062 C75.1057888 42.37960672 70.24084469 49.62863948 65.40396118 56.89764404 C62.49272432 61.26965967 59.55134325 65.61826806 56.5625 69.9375 C56.10915283 70.59532471 55.65580566 71.25314941 55.1887207 71.9309082 C53.35126015 74.59692179 51.51120767 77.26113051 49.66894531 79.92382812 C42.20310653 90.71581154 34.89590586 101.60807815 27.63525391 112.5390625 C24.90392173 116.64951761 22.16461309 120.75464756 19.42578125 124.86010742 C17.49523307 127.754715 15.567318 130.65101096 13.64453125 133.55078125 C12.91621094 134.64777344 12.18789062 135.74476563 11.4375 136.875 C10.79683594 137.84179688 10.15617188 138.80859375 9.49609375 139.8046875 C8 142 8 142 7 143 C5.19039129 143.09641497 3.37697872 143.12187398 1.56480408 143.12025452 C0.38544785 143.12162918 -0.79390839 143.12300385 -2.00900269 143.12442017 C-3.3145108 143.12082489 -4.62001892 143.11722961 -5.96508789 143.11352539 C-7.34452818 143.11324352 -8.72396861 143.11340125 -10.10340881 143.1139679 C-13.85944118 143.11425588 -17.61544189 143.10835905 -21.37146688 143.10139394 C-25.29260045 143.09516051 -29.21373467 143.09455661 -33.13487244 143.09336853 C-40.56511611 143.09025518 -47.99534514 143.08204175 -55.42558235 143.07201904 C-63.88251638 143.06085801 -72.3394511 143.05534748 -80.79639065 143.05032361 C-98.19760225 143.03985914 -115.59879958 143.02225963 -133 143 C-131.88960493 141.25242495 -130.7788597 139.50507238 -129.66796875 137.7578125 C-128.7402063 136.29819092 -128.7402063 136.29819092 -127.79370117 134.80908203 C-122.91186431 127.16372815 -117.71593 119.76690575 -112.46313477 112.37402344 C-109.03381785 107.52547638 -105.78788825 102.59915762 -102.65234375 97.5546875 C-100.19742159 93.7591341 -97.48612317 90.16168029 -94.80078125 86.52734375 C-92.61241768 83.45603957 -90.77322626 80.32479924 -89 77 C-90.65 76.67 -92.3 76.34 -94 76 C-94 75.67 -94 75.34 -94 75 C-82.12 75.33 -70.24 75.66 -58 76 C-60.26401171 80.52802342 -61.50479307 81.79326205 -66 84 C-68.17536277 83.95175607 -70.20039105 83.6011524 -72.34375 83.23046875 C-77.61222751 82.77335085 -82.8328851 84.03366167 -88 85 C-88 85.66 -88 86.32 -88 87 C-80.74198709 87.30520473 -73.48563476 87.51476734 -66.22265625 87.65917969 C-63.75457952 87.71939247 -61.28692854 87.80118853 -58.8203125 87.90527344 C-46.07039456 89.08274849 -46.07039456 89.08274849 -34.12414551 85.85897827 C-30.95834543 82.76407518 -29.51408748 79.07456174 -28 75 C-26.96430089 73.40552682 -25.8879067 71.83571558 -24.75 70.3125 C-24.18667969 69.51199219 -23.62335938 68.71148437 -23.04296875 67.88671875 C-21.42216308 65.59651724 -19.79936077 63.3077653 -18.17578125 61.01953125 C-12.96772166 53.67150181 -7.82498281 46.30487989 -2.87890625 38.77734375 C-0.30571073 34.97372209 2.44995242 31.31598517 5.23828125 27.66796875 C6.89817082 25.15421138 7.97528022 22.68697859 9.10473633 19.90698242 C10.85214552 16.18486265 13.31632867 12.90742677 15.6875 9.5625 C17.440625 7.066875 19.19375 4.57125 21 2 C13.74 2.33 6.48 2.66 -1 3 C-0.67 2.01 -0.34 1.02 0 0 Z " fill="#9A5838" transform="translate(198,67)"/>
<path d="M0 0 C0.66 0 1.32 0 2 0 C0.40210514 4.76613466 -2.25270006 8.49870235 -5.125 12.5625 C-6.13222615 14.00601127 -7.1387328 15.45002484 -8.14453125 16.89453125 C-8.63646973 17.59916504 -9.1284082 18.30379883 -9.63525391 19.02978516 C-11.40022123 21.57777913 -13.10943543 24.16030745 -14.8125 26.75 C-18.41946495 32.19755612 -22.1744623 37.53436387 -25.9375 42.875 C-31.5087014 50.78644829 -36.86701759 58.7980916 -42 67 C-40.89140625 66.97679688 -39.7828125 66.95359375 -38.640625 66.9296875 C-37.17709008 66.91092423 -35.71354786 66.89272463 -34.25 66.875 C-33.52039063 66.85824219 -32.79078125 66.84148437 -32.0390625 66.82421875 C-26.44399499 66.7733545 -26.44399499 66.7733545 -24.04101562 68 C-21.65928027 69.16693636 -20.0912932 69.23096342 -17.453125 69.1953125 C-16.60878906 69.18886719 -15.76445312 69.18242188 -14.89453125 69.17578125 C-14.02183594 69.15902344 -13.14914063 69.14226562 -12.25 69.125 C-11.36183594 69.11597656 -10.47367187 69.10695313 -9.55859375 69.09765625 C-7.37211942 69.07414577 -5.18619906 69.04128499 -3 69 C-4.3868408 72.9613863 -6.25300091 75.87434343 -8.8125 79.1875 C-11.38201807 82.63497505 -13.57757427 85.90841401 -15.375 89.8125 C-17.99333761 95.34395495 -21.52163436 100.10030162 -25.1171875 105.015625 C-28.39151757 109.50157129 -31.50535729 114.09326468 -34.625 118.6875 C-38.6465927 124.59635296 -42.66286945 130.49229157 -47.02734375 136.15625 C-48.64862299 138.49346046 -49.90540964 140.69906473 -51.19140625 143.21875 C-56.95119715 153.91950369 -56.95119715 153.91950369 -62.04736328 155.72558594 C-67.26628778 156.49310833 -72.43319945 155.86872576 -77.64794922 155.30517578 C-81.51522234 154.95309338 -85.37382565 154.81323703 -89.25390625 154.71484375 C-89.9609671 154.69688248 -90.66802795 154.6789212 -91.39651489 154.66041565 C-92.82426664 154.62495511 -94.25203171 154.59002679 -95.67980957 154.55563354 C-99.10644579 154.46624602 -102.53144454 154.34200789 -105.95703125 154.21875 C-107.70463745 154.1559082 -107.70463745 154.1559082 -109.48754883 154.09179688 C-110.31665771 154.06150391 -111.1457666 154.03121094 -112 154 C-112 153.34 -112 152.68 -112 152 C-105.97243275 149.0834352 -99.83489151 148.59510774 -93.3125 149.75 C-90.72463412 150.11710532 -89.4710121 150.24587424 -87.13671875 149.02734375 C-84.96184909 147.24696119 -83.26302327 145.52604654 -82 143 C-86.91129185 142.97525318 -91.82254727 142.95711777 -96.73388672 142.94506836 C-98.40414055 142.94004431 -100.07438999 142.93322395 -101.74462891 142.92456055 C-104.14747196 142.91241054 -106.55025679 142.90675237 -108.953125 142.90234375 C-109.69806213 142.89718246 -110.44299927 142.89202118 -111.21051025 142.88670349 C-114.61502191 142.88633636 -117.74664759 142.92669082 -121 144 C-121 143.34 -121 142.68 -121 142 C-121.66 142 -122.32 142 -123 142 C-121.93069762 139.59406965 -120.79226875 137.74379812 -119.125 135.6875 C-117.47473296 133.60039757 -116.2192281 131.73577108 -114.9375 129.4375 C-113.41187657 126.73074875 -111.84954857 124.46606475 -110 122 C-109.4225 120.96875 -108.845 119.9375 -108.25 118.875 C-104.87710462 112.87733265 -100.71617869 107.39269282 -96.7109375 101.80859375 C-95.89048992 100.66415933 -95.0701811 99.51962542 -94.25 98.375 C-93.83258545 97.79282715 -93.4151709 97.2106543 -92.98510742 96.61083984 C-89.2024619 91.31841979 -85.51118445 85.96533929 -81.84277344 80.59326172 C-80.98368324 79.33625334 -80.11117373 78.08830081 -79.22485352 76.8503418 C-77.94962702 75.0295198 -77.94962702 75.0295198 -77.08569336 72.98754883 C-75.92444957 70.70683262 -75.09773554 69.49334529 -73 68 C-68.05533133 67.12887223 -63.18059022 67.34136636 -58.1875 67.5625 C-56.81322999 67.59763805 -55.43887411 67.62957276 -54.06445312 67.65820312 C-50.70745188 67.74065579 -47.35481936 67.8557101 -44 68 C-43.86585693 67.22382324 -43.73171387 66.44764648 -43.59350586 65.64794922 C-42.87175499 62.42782994 -41.57849847 60.72916704 -39.5625 58.125 C-36.24175013 53.7131466 -33.10166589 49.23509009 -30.0625 44.625 C-25.47028021 37.68135294 -20.75958852 30.83042704 -16 24 C-7.41353973 12.35299755 -7.41353973 12.35299755 0 0 Z " fill="#DFAE34" transform="translate(222,0)"/>
<path d="M0 0 C1.19367187 -0.01675781 2.38734375 -0.03351563 3.6171875 -0.05078125 C10.10875174 0.6215077 13.80160694 3.62882418 18.125 8.3125 C18.785 8.9725 19.445 9.6325 20.125 10.3125 C20.57875 9.590625 21.0325 8.86875 21.5 8.125 C27.24407619 1.97063265 33.40743644 -0.02138362 41.75 -0.3125 C48.14381398 -0.06782232 52.51730352 0.77047141 57.125 5.3125 C64.56849552 13.45852768 65.4186602 20.74196795 65.3203125 31.4921875 C65.3174826 32.6600882 65.31465271 33.82798889 65.31173706 35.03128052 C65.30056973 38.75012591 65.27547104 42.46872777 65.25 46.1875 C65.23996576 48.71353818 65.23084069 51.23958015 65.22265625 53.765625 C65.20064165 59.94799933 65.16719815 66.13023226 65.125 72.3125 C62.47909986 72.33934679 59.83346904 72.35926357 57.1875 72.375 C56.43275391 72.38337891 55.67800781 72.39175781 54.90039062 72.40039062 C52.97505687 72.40902441 51.04964419 72.36474333 49.125 72.3125 C47.56606309 70.75356309 47.98495543 69.23926529 47.96728516 67.0715332 C47.95702301 66.17002029 47.94676086 65.26850739 47.93618774 64.3396759 C47.92888641 63.35746567 47.92158508 62.37525543 47.9140625 61.36328125 C47.8859825 59.29751827 47.85731797 57.23176317 47.828125 55.16601562 C47.78692265 51.89852207 47.75004991 48.63117378 47.72363281 45.36352539 C47.69596948 42.21729801 47.65008236 39.07174697 47.6015625 35.92578125 C47.59830963 34.95369217 47.59505676 33.98160309 47.59170532 32.98005676 C47.49651537 27.70945587 47.16314806 23.82408275 44.125 19.3125 C40.40706323 16.83387548 37.43220653 16.78147454 33.125 17.3125 C29.65465295 18.70063882 28.41500611 19.86713348 26.375 23 C23.97775355 29.35270309 23.98464057 35.93714019 24.0625 42.64453125 C24.06628662 43.40295822 24.07007324 44.16138519 24.07397461 44.9427948 C24.08607077 47.33692452 24.10471329 49.73092658 24.125 52.125 C24.15159349 55.29817361 24.17155629 58.47128833 24.1875 61.64453125 C24.19579834 62.36953323 24.20409668 63.09453522 24.21264648 63.84150696 C24.22787256 66.95140999 24.11683544 69.33699368 23.125 72.3125 C17.845 72.3125 12.565 72.3125 7.125 72.3125 C7.11041748 71.02150391 7.09583496 69.73050781 7.08081055 68.40039062 C7.0225869 63.58436176 6.94535586 58.76878871 6.86254883 53.953125 C6.8294124 51.8737735 6.80134576 49.79433448 6.77856445 47.71484375 C6.74481049 44.71576854 6.6924844 41.71748713 6.63671875 38.71875 C6.63032883 37.79759399 6.6239389 36.87643799 6.61735535 35.92736816 C6.47251528 29.48587246 5.7515917 23.42549757 1.4375 18.3125 C-2.01684198 16.81873049 -5.22077393 16.68647721 -8.875 17.3125 C-12.72020078 19.27782484 -14.10635456 21.39237846 -15.47973633 25.34350586 C-17.07896015 30.38782534 -17.3481699 35.1168518 -17.38671875 40.37890625 C-17.40466995 41.29840561 -17.42262115 42.21790497 -17.44111633 43.16526794 C-17.49479261 46.06846692 -17.52897681 48.97150561 -17.5625 51.875 C-17.59571084 53.85744398 -17.63020392 55.83986692 -17.66601562 57.82226562 C-17.750494 62.65222724 -17.81750712 67.48214486 -17.875 72.3125 C-23.485 72.3125 -29.095 72.3125 -34.875 72.3125 C-34.875 48.8825 -34.875 25.4525 -34.875 1.3125 C-29.595 1.3125 -24.315 1.3125 -18.875 1.3125 C-18.545 3.6225 -18.215 5.9325 -17.875 8.3125 C-17.41609375 7.90257813 -16.9571875 7.49265625 -16.484375 7.0703125 C-15.87078125 6.53148438 -15.2571875 5.99265625 -14.625 5.4375 C-14.02171875 4.90382813 -13.4184375 4.37015625 -12.796875 3.8203125 C-8.54023975 0.4807572 -5.43289569 0.01752547 0 0 Z " fill="#41210E" transform="translate(839.875,90.6875)"/>
<path d="M0 0 C5.61 0 11.22 0 17 0 C25.76595745 31.4893617 25.76595745 31.4893617 29 45 C31.41530944 38.87930485 33.25506264 32.73265599 34.9375 26.375 C35.46038272 24.43084029 35.98382081 22.48682986 36.5078125 20.54296875 C36.76079102 19.60114746 37.01376953 18.65932617 37.27441406 17.68896484 C38.265662 14.01547735 39.28114167 10.3499513 40.3125 6.6875 C40.61800781 5.59824219 40.92351562 4.50898437 41.23828125 3.38671875 C42 1 42 1 43 0 C45.53049402 -0.07313567 48.03304837 -0.09247527 50.5625 -0.0625 C51.62887695 -0.05573242 51.62887695 -0.05573242 52.71679688 -0.04882812 C54.47790013 -0.03700864 56.23896036 -0.01907263 58 0 C60.53061503 6.44576108 62.53078131 12.97050951 64.4375 19.625 C64.72431641 20.61628906 65.01113281 21.60757813 65.30664062 22.62890625 C67.55600494 30.41401125 69.77636792 38.20751271 72 46 C72.25692627 44.99735107 72.51385254 43.99470215 72.77856445 42.96166992 C73.74500148 39.19110704 74.71255423 35.42083116 75.68041992 31.65063477 C76.09673324 30.0283153 76.51275623 28.40592129 76.9284668 26.78344727 C79.2209376 17.83701787 81.5375281 8.901557 84 0 C89.61 0 95.22 0 101 0 C95.71007114 20.30268786 90.02372392 40.45799485 84.01806641 60.56030273 C82.9900091 64.03375583 81.99514968 67.51697612 81 71 C75.39 71 69.78 71 64 71 C58.96171543 56.49957124 54.86922212 41.85215235 51 27 C48.90127058 32.41341353 47.10652436 37.8100379 45.5546875 43.40234375 C45.33934357 44.16551407 45.12399963 44.92868439 44.90213013 45.71498108 C44.22316638 48.12158659 43.54855092 50.52937439 42.875 52.9375 C41.9803173 56.13518562 41.08132706 59.33161374 40.1796875 62.52734375 C39.97552216 63.2626683 39.77135681 63.99799286 39.56100464 64.75559998 C38.11276533 69.88723467 38.11276533 69.88723467 37 71 C34.30345146 71.07319621 31.63308542 71.09242537 28.9375 71.0625 C28.17888672 71.05798828 27.42027344 71.05347656 26.63867188 71.04882812 C24.75908129 71.0370068 22.87953101 71.01907078 21 71 C17.46731965 63.8559553 15.33939705 56.56310411 13.3125 48.875 C12.62311857 46.3132307 11.93211083 43.75196781 11.23828125 41.19140625 C11.05999786 40.53136093 10.88171448 39.87131561 10.69802856 39.19126892 C8.38655071 30.67354279 5.88846981 22.2091097 3.38955688 13.74481201 C2.82020144 11.81614197 2.25378023 9.88660645 1.6875 7.95703125 C1.36136719 6.85335205 1.03523438 5.74967285 0.69921875 4.61254883 C0 2 0 2 0 0 Z " fill="#41210E" transform="translate(353,92)"/>
<path d="M0 0 C5.61 0 11.22 0 17 0 C17.33 11.55 17.66 23.1 18 35 C20.97 32.525 20.97 32.525 24 30 C30.29679202 26.68589894 38.76517792 26.78347502 45.515625 28.72265625 C51.52132573 31.5535877 56.0812493 36.02351048 59 42 C61.07376801 48.65953066 61.26342567 54.77452971 61.1953125 61.71875 C61.1924826 62.81723267 61.18965271 63.91571533 61.18673706 65.04748535 C61.17560486 68.531771 61.15051298 72.01579296 61.125 75.5 C61.11496121 77.8723921 61.10583694 80.24478826 61.09765625 82.6171875 C61.07568829 88.41155885 61.04120648 94.20573482 61 100 C55.39 100 49.78 100 44 100 C43.98541748 98.64318115 43.97083496 97.2863623 43.95581055 95.88842773 C43.8976681 90.83575603 43.82043581 85.78352254 43.73754883 80.73120117 C43.70437448 78.5480055 43.6763194 76.36472561 43.65356445 74.18139648 C43.61988096 71.03593183 43.56755724 67.89123376 43.51171875 64.74609375 C43.50532883 63.7760289 43.4989389 62.80596405 43.49235535 61.8065033 C43.37034311 56.13294988 42.72825713 52.01222327 40 47 C36.14255057 44.15021083 31.59802709 44.36936781 27 45 C22.43653309 47.11271616 20.47931514 49.26309403 18.60675049 53.90557861 C17.45054978 57.89662853 17.53833617 61.9265569 17.5234375 66.0546875 C17.50785797 66.99684113 17.49227844 67.93899475 17.47622681 68.90969849 C17.4289509 71.89812485 17.40100528 74.88631941 17.375 77.875 C17.33852748 80.88494294 17.29799724 83.89475381 17.25234985 86.90457153 C17.22508126 88.77304321 17.20374829 90.64161244 17.18881226 92.51022339 C17.11071506 98.88928494 17.11071506 98.88928494 16 100 C13.48863896 100.09975032 11.01096585 100.13882183 8.5 100.125 C7.79746094 100.12886719 7.09492188 100.13273437 6.37109375 100.13671875 C1.12661378 100.12661378 1.12661378 100.12661378 0 99 C-0.09532328 95.92545239 -0.1255138 92.87340842 -0.11352539 89.79858398 C-0.11367142 88.83283447 -0.11381744 87.86708496 -0.1139679 86.87207031 C-0.11326834 83.66338901 -0.10547397 80.45476497 -0.09765625 77.24609375 C-0.09579222 75.02791882 -0.09436825 72.80974348 -0.09336853 70.59156799 C-0.08954216 64.74059929 -0.07971086 58.88965523 -0.06866455 53.03869629 C-0.05845299 47.07332696 -0.05387146 41.10795367 -0.04882812 35.14257812 C-0.03808869 23.42837456 -0.02101085 11.71418933 0 0 Z " fill="#42220E" transform="translate(462,63)"/>
<path d="M0 0 C7.34191545 5.12058936 12.14136475 9.79878278 14.98828125 18.38671875 C15.40078125 19.43859375 15.81328125 20.49046875 16.23828125 21.57421875 C17.385364 27.40522273 16.98828125 33.44395792 16.98828125 39.38671875 C1.14828125 39.71671875 -14.69171875 40.04671875 -31.01171875 40.38671875 C-28.96538783 47.3613892 -28.96538783 47.3613892 -24.57421875 51.32421875 C-23.70990234 51.89462891 -23.70990234 51.89462891 -22.828125 52.4765625 C-18.16035832 54.81546494 -13.01431917 55.1630565 -7.95703125 53.85546875 C-3.65699715 52.36262672 -0.4215877 50.47691249 2.98828125 47.38671875 C6.858794 50.46553571 10.01739507 53.38744889 12.98828125 57.38671875 C10.58787117 62.9436681 6.10551093 65.95820975 0.6953125 68.4375 C-9.17303841 71.83427331 -20.47318519 71.77845068 -30.01171875 67.38671875 C-39.09901003 62.06059289 -44.40197784 56.28384874 -48.01171875 46.38671875 C-50.7588484 35.54278591 -49.69758662 23.49832837 -45.01171875 13.38671875 C-42.96401792 10.34913411 -40.70538708 7.85949401 -38.01171875 5.38671875 C-37.22796875 4.64421875 -36.44421875 3.90171875 -35.63671875 3.13671875 C-25.57753045 -3.56940678 -11.14245884 -6.16621508 0 0 Z M-27.82421875 16.57421875 C-30.76301971 19.85812327 -30.76301971 19.85812327 -31.01171875 27.38671875 C-20.78171875 27.38671875 -10.55171875 27.38671875 -0.01171875 27.38671875 C-1.04501384 20.15365313 -1.90294181 17.98586101 -7.01171875 13.38671875 C-14.51902911 8.95933059 -21.44052409 11.6091229 -27.82421875 16.57421875 Z " fill="#41210E" transform="translate(778.01171875,93.61328125)"/>
<path d="M0 0 C0.66515625 0.45761719 1.3303125 0.91523437 2.015625 1.38671875 C9.93680301 7.4607313 12.34259787 16.48212455 14 26 C14.24815261 29.35449159 14.36502481 32.65159935 14 36 C13 37 13 37 11.05747986 37.12025452 C10.20698563 37.11803391 9.35649139 37.11581329 8.48022461 37.11352539 C7.03884377 37.11341209 7.03884377 37.11341209 5.56834412 37.11329651 C4.523564 37.10813522 3.47878387 37.10297394 2.40234375 37.09765625 C1.33834854 37.0962413 0.27435333 37.09482635 -0.82188416 37.09336853 C-4.23545083 37.08775064 -7.648953 37.07519511 -11.0625 37.0625 C-13.37044176 37.05748731 -15.67838455 37.052924 -17.98632812 37.04882812 C-23.65757426 37.0377754 -29.32878253 37.02101987 -35 37 C-34.39127511 38.45224097 -33.77366991 39.90076177 -33.15234375 41.34765625 C-32.80937256 42.15468994 -32.46640137 42.96172363 -32.11303711 43.79321289 C-30.17864401 47.62847923 -27.35676342 49.26661437 -23.6875 51.25 C-17.02415164 53.10953908 -11.04677437 52.19729884 -5 49 C-2.55789478 46.98082178 -2.55789478 46.98082178 -1 45 C2.05666901 46.35186015 4.08635683 47.82120826 6.3125 50.3125 C6.84488281 50.88613281 7.37726563 51.45976562 7.92578125 52.05078125 C9 54 9 54 8.91796875 56.53515625 C7.0215568 61.62722409 1.53788995 63.7381178 -3.10546875 66.046875 C-11.94967573 69.56464588 -22.76691978 69.21984047 -31.6875 66.109375 C-39.90435678 62.16750452 -46.61689334 55.64044695 -50.3125 47.3125 C-54.21235138 35.59696287 -53.25298408 22.77489127 -48.38671875 11.56640625 C-47.08593647 9.15904299 -45.81001147 7.05264035 -44 5 C-43.34 5 -42.68 5 -42 5 C-42 4.34 -42 3.68 -42 3 C-39.734375 1.30859375 -39.734375 1.30859375 -36.75 -0.5625 C-35.77546875 -1.18253906 -34.8009375 -1.80257812 -33.796875 -2.44140625 C-23.83596995 -7.99224579 -9.07650259 -6.46615504 0 0 Z M-32.4375 15.3125 C-34.51907095 18.50592092 -34.51907095 18.50592092 -35 25 C-24.44 25 -13.88 25 -3 25 C-5.18165405 15.83681229 -5.18165405 15.83681229 -11.8125 10.1875 C-19.86254846 7.18846234 -26.43275213 9.61568791 -32.4375 15.3125 Z " fill="#41210E" transform="translate(1110,96)"/>
<path d="M0 0 C7.48126632 4.54144477 10.23166296 8.87513297 12.44277954 17.31143188 C13.44716686 22.27658823 13.43248246 27.11935042 13.35546875 32.16796875 C13.35122391 33.24001053 13.34697906 34.31205231 13.34260559 35.4165802 C13.32597989 38.79882261 13.28835846 42.18044149 13.25 45.5625 C13.23493233 47.87303819 13.2212476 50.18358584 13.20898438 52.49414062 C13.17612928 58.12132943 13.12446021 63.74805947 13.0625 69.375 C7.7825 69.375 2.5025 69.375 -2.9375 69.375 C-3.2675 67.395 -3.5975 65.415 -3.9375 63.375 C-4.54078125 63.79652344 -5.1440625 64.21804687 -5.765625 64.65234375 C-6.96445312 65.47412109 -6.96445312 65.47412109 -8.1875 66.3125 C-8.97640625 66.85777344 -9.7653125 67.40304688 -10.578125 67.96484375 C-16.60163264 71.56498656 -24.48111803 71.20675622 -31.21875 69.94921875 C-37.28135148 67.98849644 -43.18157555 63.75614902 -46.14453125 58.05078125 C-47.95829703 51.93043861 -47.75000067 45.00367864 -45.875 38.9375 C-40.4327683 31.73970968 -33.84893667 27.85147574 -24.9375 26.375 C-23.24492755 26.29799714 -21.54976001 26.26694933 -19.85546875 26.27734375 C-18.92412109 26.28056641 -17.99277344 26.28378906 -17.03320312 26.28710938 C-16.07349609 26.29548828 -15.11378906 26.30386719 -14.125 26.3125 C-13.14595703 26.31701172 -12.16691406 26.32152344 -11.15820312 26.32617188 C-8.75123889 26.33791316 -6.34440143 26.35433581 -3.9375 26.375 C-4.37768482 24.92561097 -4.82907688 23.47962253 -5.28515625 22.03515625 C-5.66039429 20.82678101 -5.66039429 20.82678101 -6.04321289 19.59399414 C-6.88301744 17.11719723 -6.88301744 17.11719723 -9.375 14.8125 C-15.49211972 12.34418854 -21.59790721 12.15363745 -27.83203125 14.43359375 C-31.3878366 16.18806872 -34.63959359 18.17639573 -37.9375 20.375 C-41.4025 14.435 -41.4025 14.435 -44.9375 8.375 C-41.2920479 3.81818487 -40.32918791 2.70104065 -35.375 0.625 C-34.42496094 0.21765625 -33.47492187 -0.1896875 -32.49609375 -0.609375 C-22.74739547 -4.47908729 -9.49779908 -4.54707131 0 0 Z M-27.9375 41.375 C-30.43781654 45.12547482 -30.47353554 46.93356266 -29.9375 51.375 C-27.92772654 54.35724449 -26.33966294 55.91916376 -22.8828125 57.04296875 C-17.81742287 57.92809739 -14.10030888 57.26507647 -9.66796875 54.6640625 C-6.79889405 52.52682853 -5.41424953 50.63615522 -3.9375 47.375 C-3.63953731 44.34074664 -3.69460713 41.41116083 -3.9375 38.375 C-6.6256249 38.29335841 -9.311223 38.23420332 -12 38.1875 C-12.75216797 38.16236328 -13.50433594 38.13722656 -14.27929688 38.11132812 C-19.60063494 38.04221984 -23.24278291 38.80935206 -27.9375 41.375 Z " fill="#41210E" transform="translate(580.9375,93.625)"/>
<path d="M0 0 C9.0394417 5.5919174 14.87785472 13.1342723 17.6328125 23.42578125 C19.85934301 36.13413229 17.80752594 46.64902814 11.203125 57.57421875 C6.42559599 64.08619851 -1.84166375 68.96688968 -9.859375 70.32421875 C-21.97155057 71.33772041 -31.5567491 69.07424919 -40.921875 61.1640625 C-48.89167412 53.59596696 -50.96202477 44.77604279 -51.296875 33.94921875 C-51.02096948 23.08957765 -48.77327906 14.06181673 -41.0078125 6.1953125 C-29.98746598 -3.40240747 -13.48665471 -6.53689897 0 0 Z M-29.44140625 17.9375 C-33.97294807 23.82719845 -34.37983183 30.03782312 -33.859375 37.32421875 C-33.07851246 43.25877403 -31.28841602 47.092024 -26.859375 51.32421875 C-22.06069165 53.99015394 -18.32191807 54.90949122 -12.859375 54.32421875 C-7.65177204 52.79785237 -4.72128376 50.83516917 -1.86328125 46.3359375 C1.44537859 39.70574365 1.92712946 32.48176242 0.140625 25.32421875 C-2.13302232 20.22387476 -5.16001939 16.41590007 -9.859375 13.32421875 C-17.19013726 10.88063133 -24.03470095 12.42399559 -29.44140625 17.9375 Z " fill="#41210E" transform="translate(966.859375,93.67578125)"/>
<path d="M0 0 C5.94 0 11.88 0 18 0 C21.11781099 7.6797387 24.07474797 15.41288884 26.9465332 23.18725586 C27.44290997 24.52722781 27.94228996 25.86609086 28.44458008 27.20385742 C29.18210705 29.16860248 29.91034992 31.13657534 30.63671875 33.10546875 C31.06686279 34.26199951 31.49700684 35.41853027 31.94018555 36.61010742 C33.02490084 40.07964714 33.58605609 43.39384002 34 47 C34.66 47 35.32 47 36 47 C36.10666992 46.44820068 36.21333984 45.89640137 36.32324219 45.32788086 C37.46085488 39.80224973 39.10459212 34.76991506 41.25 29.5625 C44.14838669 22.34179656 46.73179039 15.06233333 49.13378906 7.66235352 C50.92138436 2.15723128 50.92138436 2.15723128 52 0 C57.94 0 63.88 0 70 0 C55.63491855 41.26140415 55.63491855 41.26140415 49.28515625 56.80859375 C47.39762199 61.49587487 45.69526722 66.24021126 44 71 C38.06 71 32.12 71 26 71 C21.78676937 60.60179819 17.76620787 50.15203395 13.89550781 39.62182617 C13.00423704 37.19901786 12.10778354 34.77817108 11.2109375 32.35742188 C7.25471353 21.63844622 3.56593417 10.8554429 0 0 Z " fill="#41210E" transform="translate(986,92)"/>
<path d="M0 0 C5.61 0 11.22 0 17 0 C17 5.94 17 11.88 17 18 C22.61 18 28.22 18 34 18 C34 22.62 34 27.24 34 32 C28.39 32 22.78 32 17 32 C17.07409997 37.03624266 17.15701416 42.07074118 17.26245117 47.10620117 C17.29564169 48.81802238 17.32369189 50.52995148 17.34643555 52.24194336 C17.38009032 54.70733479 17.43240974 57.17174281 17.48828125 59.63671875 C17.49467117 60.39836838 17.5010611 61.16001801 17.50764465 61.94474792 C17.63119186 66.4410051 18.2062094 69.42583775 21 73 C23.99633483 74.35809485 26.14819286 73.94134536 29.25 73.0625 C30.4875 72.711875 31.725 72.36125 33 72 C33.67528223 73.57967807 34.33989694 75.16391903 35 76.75 C35.37125 77.63171875 35.7425 78.5134375 36.125 79.421875 C37 82 37 82 37 86 C29.19161052 90.08165814 21.46891808 91.63236105 12.8125 89 C8.08067326 86.95562049 4.61694524 83.39222431 2 79 C0.21496497 73.08990102 -0.27349699 67.8360805 -0.1953125 61.6875 C-0.1924826 60.83317383 -0.18965271 59.97884766 -0.18673706 59.09863281 C-0.17563879 56.39893947 -0.15055427 53.69959123 -0.125 51 C-0.11495679 49.15755691 -0.1058333 47.31510857 -0.09765625 45.47265625 C-0.0757335 40.98164006 -0.04127646 36.49087832 0 32 C-2.97 32 -5.94 32 -9 32 C-9 27.38 -9 22.76 -9 18 C-6.03 18 -3.06 18 0 18 C0 12.06 0 6.12 0 0 Z " fill="#41210E" transform="translate(611,74)"/>
<path d="M0 0 C0.02684679 2.64590014 0.04676357 5.29153096 0.0625 7.9375 C0.07087891 8.69224609 0.07925781 9.44699219 0.08789062 10.22460938 C0.09652441 12.14994313 0.05224333 14.07535581 0 16 C-1.73698267 17.73698267 -4.32059785 17.45886812 -6.6875 17.75 C-12.40389466 18.69480245 -15.32789767 19.45818922 -19 24 C-21.03210826 29.97269752 -21.32450694 36.15645325 -21.4140625 42.41015625 C-21.43342865 43.26306747 -21.4527948 44.1159787 -21.4727478 44.99473572 C-21.53190102 47.68389294 -21.57866838 50.3730945 -21.625 53.0625 C-21.66323911 54.90040794 -21.70229417 56.7382991 -21.7421875 58.57617188 C-21.8390647 63.05068736 -21.91914028 67.52505262 -22 72 C-27.61 72 -33.22 72 -39 72 C-39 48.57 -39 25.14 -39 1 C-33.72 1 -28.44 1 -23 1 C-22.67 3.64 -22.34 6.28 -22 9 C-21.525625 8.2575 -21.05125 7.515 -20.5625 6.75 C-14.77359415 0.53751567 -8.18814078 -0.51988195 0 0 Z " fill="#41210E" transform="translate(726,91)"/>
<path d="M0 0 C0.66 0 1.32 0 2 0 C3.01938767 2.62989956 3.14565852 3.66674237 1.99609375 6.296875 C-1.96746865 12.53526393 -6.14243739 18.47006972 -10.79296875 24.21484375 C-13.53184859 27.63114377 -16.03973564 30.79256956 -17.8125 34.8125 C-19.59977466 38.72265112 -22.20889984 41.7745283 -25 45 C-28.23611013 48.75293646 -30.94811512 52.27431451 -32.95703125 56.8203125 C-35.49554779 62.12552684 -38.87794834 67.02459557 -42 72 C-42.62648438 73.02480469 -43.25296875 74.04960937 -43.8984375 75.10546875 C-46.89334633 79.95094351 -49.70892396 84.22905439 -54 88 C-54.66 87.67 -55.32 87.34 -56 87 C-55.505 85.02 -55.505 85.02 -55 83 C-58.48539917 83.64544429 -61.02819057 85.10134397 -64 87 C-64.66 86.01 -65.32 85.02 -66 84 C-66.845625 84.165 -67.69125 84.33 -68.5625 84.5 C-72.12308058 85.01790263 -75.40770293 85.20724791 -79 85 C-79.99 84.01 -79.99 84.01 -81 83 C-83.18093919 82.72259237 -83.18093919 82.72259237 -85.68359375 82.8046875 C-86.61107422 82.81113281 -87.53855469 82.81757813 -88.49414062 82.82421875 C-89.46544922 82.84097656 -90.43675781 82.85773438 -91.4375 82.875 C-92.40494141 82.88402344 -93.37238281 82.89304687 -94.36914062 82.90234375 C-96.16728571 82.91981358 -97.96539876 82.94137721 -99.76342773 82.96826172 C-104.68275144 83.03806983 -104.68275144 83.03806983 -107.05078125 82.75390625 C-111.83711619 82.32884355 -111.83711619 82.32884355 -115.921875 84.55859375 C-117.40515843 86.31381247 -118.74746403 88.07453295 -120 90 C-120 86.26070196 -118.94719289 85.22267273 -116.75 82.25 C-113.87663447 78.27508054 -111.34047463 74.30647331 -109 70 C-110.65 69.67 -112.3 69.34 -114 69 C-114 68.67 -114 68.34 -114 68 C-102.12 68.33 -90.24 68.66 -78 69 C-80.26401171 73.52802342 -81.50479307 74.79326205 -86 77 C-88.17536277 76.95175607 -90.20039105 76.6011524 -92.34375 76.23046875 C-97.61222751 75.77335085 -102.8328851 77.03366167 -108 78 C-108 78.66 -108 79.32 -108 80 C-100.74198709 80.30520473 -93.48563476 80.51476734 -86.22265625 80.65917969 C-83.75457952 80.71939247 -81.28692854 80.80118853 -78.8203125 80.90527344 C-66.07039456 82.08274849 -66.07039456 82.08274849 -54.12414551 78.85897827 C-50.95834543 75.76407518 -49.51408748 72.07456174 -48 68 C-46.96430089 66.40552682 -45.8879067 64.83571558 -44.75 63.3125 C-44.18667969 62.51199219 -43.62335938 61.71148437 -43.04296875 60.88671875 C-41.42216308 58.59651724 -39.79936077 56.3077653 -38.17578125 54.01953125 C-32.96772166 46.67150181 -27.82498281 39.30487989 -22.87890625 31.77734375 C-20.89670843 28.84731745 -18.80555231 26.02053911 -16.6875 23.1875 C-14.47632785 20.20778452 -12.64414098 17.55078222 -11.375 14.0625 C-9.63902093 10.19600116 -7.4998013 9.28558452 -4 7 C-2.39649624 4.74430663 -1.24372688 2.48745376 0 0 Z " fill="#84461C" transform="translate(218,74)"/>
<path d="M0 0 C2.82424288 2.19022918 4.41508603 3.83017207 6 7 C6.35017306 12.3401391 6.46830225 15.66462219 3 20 C0.40063719 22.79190821 -1.00859908 23.00110956 -4.875 23.5 C-9.65776952 23.33014463 -11.75730635 21.40087383 -15 18 C-16.24067966 14.27796101 -16.54711324 10.86626692 -16 7 C-12.02914984 -0.27989195 -7.96657603 -1.15239779 0 0 Z " fill="#41210E" transform="translate(670,141)"/>
<path d="M0 0 C11.88 0.33 23.76 0.66 36 1 C33.73598829 5.52802342 32.49520693 6.79326205 28 9 C25.82463723 8.95175607 23.79960895 8.6011524 21.65625 8.23046875 C16.38777249 7.77335085 11.1671149 9.03366167 6 10 C6 10.66 6 11.32 6 12 C16.23 12 26.46 12 37 12 C37 12.33 37 12.66 37 13 C24.46 13 11.92 13 -1 13 C0.98 9.37 2.96 5.74 5 2 C3.35 1.67 1.7 1.34 0 1 C0 0.67 0 0.34 0 0 Z " fill="#A9701B" transform="translate(104,142)"/>
<path d="M0 0 C1 2 1 2 0.109375 5.00390625 C-0.56351563 6.76541016 -0.56351563 6.76541016 -1.25 8.5625 C-1.90742188 10.32787109 -1.90742188 10.32787109 -2.578125 12.12890625 C-3.04734375 13.07636719 -3.5165625 14.02382812 -4 15 C-4.99 15.33 -5.98 15.66 -7 16 C-7 16.99 -7 17.98 -7 19 C-8.390625 20.3515625 -8.390625 20.3515625 -10.25 21.625 C-10.85328125 22.05039063 -11.4565625 22.47578125 -12.078125 22.9140625 C-14.06458562 24.0364935 -15.78986749 24.48757008 -18 25 C-19.68991979 25.9601817 -21.36209288 26.95355934 -23 28 C-23.66 27.01 -24.32 26.02 -25 25 C-26.2684375 25.2475 -26.2684375 25.2475 -27.5625 25.5 C-31.12308058 26.01790263 -34.40770293 26.20724791 -38 26 C-38.66 25.34 -39.32 24.68 -40 24 C-42.18093919 23.72259237 -42.18093919 23.72259237 -44.68359375 23.8046875 C-45.61107422 23.81113281 -46.53855469 23.81757813 -47.49414062 23.82421875 C-48.46544922 23.84097656 -49.43675781 23.85773438 -50.4375 23.875 C-51.40494141 23.88402344 -52.37238281 23.89304688 -53.36914062 23.90234375 C-55.16728571 23.91981358 -56.96539876 23.94137721 -58.76342773 23.96826172 C-63.68275144 24.03806983 -63.68275144 24.03806983 -66.05078125 23.75390625 C-70.83711619 23.32884355 -70.83711619 23.32884355 -74.921875 25.55859375 C-76.40515843 27.31381247 -77.74746403 29.07453295 -79 31 C-79 27.84919082 -78.54480964 25.84656144 -76.70495605 23.25689697 C-72.63172969 20.25410644 -66.56818458 21.439981 -61.765625 21.6171875 C-59.76817228 21.63973298 -57.77071585 21.66220705 -55.77322006 21.6805439 C-50.85365041 21.73441106 -45.93600341 21.85124959 -41.01855469 22.00292969 C-38.25789569 22.08566444 -35.50006502 22.13587788 -32.73822021 22.15237427 C-30.14187595 22.17022521 -27.54528984 22.23678177 -24.95172119 22.35812378 C-21.27433279 22.3589033 -18.47561473 22.21572296 -15 21 C-11.50082557 17.39336845 -9.35535039 13.40199655 -7 9 C-5.70225829 7.22344597 -4.37440628 5.46793049 -3 3.75 C-2.13375 2.65945312 -2.13375 2.65945312 -1.25 1.546875 C-0.8375 1.03640625 -0.425 0.5259375 0 0 Z " fill="#79441C" transform="translate(177,133)"/>
<path d="M0 0 C0 3.54562148 -0.71982854 4.37990353 -2.74609375 7.2109375 C-3.33173096 8.037146 -3.91736816 8.86335449 -4.52075195 9.71459961 C-5.15327881 10.59253174 -5.78580566 11.47046387 -6.4375 12.375 C-7.73201841 14.19643866 -9.02628935 16.01805321 -10.3203125 17.83984375 C-10.95356445 18.72655762 -11.58681641 19.61327148 -12.23925781 20.52685547 C-14.45896981 23.64467058 -16.63982275 26.78673139 -18.8125 29.9375 C-19.49828125 30.93007812 -20.1840625 31.92265625 -20.890625 32.9453125 C-21.58671875 33.95335937 -22.2828125 34.96140625 -23 36 C-24.68688234 38.43792777 -26.37468923 40.87521494 -28.0625 43.3125 C-28.82423491 44.41274923 -29.58595527 45.51300853 -30.34765625 46.61328125 C-30.89292969 47.40089844 -31.43820313 48.18851563 -32 49 C-33 46 -33 46 -32.0625 43.8125 C-31.711875 43.214375 -31.36125 42.61625 -31 42 C-30.34 42 -29.68 42 -29 42 C-28.73058594 41.28070313 -28.46117188 40.56140625 -28.18359375 39.8203125 C-27.00182948 37.00435936 -25.63443645 34.49089424 -24.0625 31.875 C-23.55847656 31.02679688 -23.05445312 30.17859375 -22.53515625 29.3046875 C-21.1623738 27.24376728 -19.75566351 25.72074975 -18 24 C-17.28272222 22.35448038 -16.61674772 20.68577711 -16 19 C-15.34786461 17.65949948 -14.68620031 16.32338632 -14 15 C-13.34 15 -12.68 15 -12 15 C-11.690625 13.7315625 -11.690625 13.7315625 -11.375 12.4375 C-9.10689355 6.76723388 -5.64220877 2.49136491 0 0 Z " fill="#AE6D10" transform="translate(145,72)"/>
<path d="M0 0 C0.66 0 1.32 0 2 0 C2.671875 1.6796875 2.671875 1.6796875 3 4 C1.890625 6.5078125 1.890625 6.5078125 0.25 9.125 C-0.28109375 9.99382812 -0.8121875 10.86265625 -1.359375 11.7578125 C-3 14 -3 14 -6 16 C-5.690625 15.484375 -5.38125 14.96875 -5.0625 14.4375 C-3.82517598 11.91019447 -3.82517598 11.91019447 -3.5625 8.5625 C-2.99228136 4.95111525 -2.19295851 2.89470523 0 0 Z M-8 16 C-7.34 16.33 -6.68 16.66 -6 17 C-11.4446461 25.33030853 -11.4446461 25.33030853 -14.125 28.5625 C-15.75542023 30.6820463 -16.71112069 32.41456024 -17.8125 34.8125 C-20.07191663 39.57633025 -23.39940026 43.19711938 -27 47 C-27 44 -27 44 -25.625 42.1875 C-23.69671113 39.59172653 -22.91096615 37.08327005 -22 34 C-21.34 34 -20.68 34 -20 34 C-19.814375 33.195625 -19.62875 32.39125 -19.4375 31.5625 C-16.99386672 25.50653927 -12.68437627 20.51247256 -8 16 Z M-29 47 C-29 47.99 -29 48.98 -29 50 C-29.99 50.495 -29.99 50.495 -31 51 C-30.34 49.68 -29.68 48.36 -29 47 Z " fill="#8C4829" transform="translate(218,74)"/>
<path d="M0 0 C0.33 0.66 0.66 1.32 1 2 C0.62713867 2.54414551 0.25427734 3.08829102 -0.12988281 3.64892578 C-1.83697455 6.14068632 -3.54349157 8.63283994 -5.25 11.125 C-6.12978516 12.40890625 -6.12978516 12.40890625 -7.02734375 13.71875 C-7.60097656 14.55664062 -8.17460937 15.39453125 -8.765625 16.2578125 C-9.55114746 17.40467529 -9.55114746 17.40467529 -10.35253906 18.57470703 C-12.2523284 21.37146271 -14.12456841 24.18685262 -16 27 C-5.77 27.33 4.46 27.66 15 28 C15 28.66 15 29.32 15 30 C3.45 30 -8.1 30 -20 30 C-14.60761313 19.21522626 -7.22270281 9.60797812 0 0 Z " fill="#973E04" transform="translate(20,114)"/>
<path d="M0 0 C1 3 1 3 0.21484375 4.81835938 C-0.20667969 5.48673828 -0.62820312 6.15511719 -1.0625 6.84375 C-1.52640137 7.59052002 -1.99030273 8.33729004 -2.46826172 9.10668945 C-2.97373535 9.89648193 -3.47920898 10.68627441 -4 11.5 C-4.76014404 12.71079224 -4.76014404 12.71079224 -5.53564453 13.94604492 C-6.55108063 15.5609534 -7.57071707 17.17322908 -8.59472656 18.78271484 C-9.78703104 20.6639708 -10.95910242 22.55462687 -12.1171875 24.45703125 C-15.03303346 29.19366101 -17.81051113 33.31832796 -22 37 C-22.66 36.67 -23.32 36.34 -24 36 C-23.05016642 34.49460339 -22.08988109 32.99579653 -21.125 31.5 C-20.59132812 30.6646875 -20.05765625 29.829375 -19.5078125 28.96875 C-19.01023438 28.3190625 -18.51265625 27.669375 -18 27 C-17.34 27 -16.68 27 -16 27 C-16 26.01 -16 25.02 -16 24 C-15.02730354 22.97342239 -14.02259677 21.97688068 -13 21 C-12.09801799 19.57074661 -11.24555103 18.10938214 -10.4375 16.625 C-10.00179687 15.82578125 -9.56609375 15.0265625 -9.1171875 14.203125 C-7.92836231 11.97337732 -7.92836231 11.97337732 -7.0625 9.375 C-5.41796067 5.69897091 -2.70294708 2.94944225 0 0 Z " fill="#8C4C2D" transform="translate(186,125)"/>
<path d="M0 0 C7.92 0 15.84 0 24 0 C22 3 22 3 19.56982422 3.6159668 C18.5748291 3.72593994 17.57983398 3.83591309 16.5546875 3.94921875 C15.47832031 4.07490234 14.40195313 4.20058594 13.29296875 4.33007812 C12.16503906 4.44802734 11.03710938 4.56597656 9.875 4.6875 C8.17150391 4.88182617 8.17150391 4.88182617 6.43359375 5.08007812 C3.62352378 5.39886758 0.81264507 5.7049474 -2 6 C-1.34 4.02 -0.68 2.04 0 0 Z " fill="#875510" transform="translate(109,144)"/>
<path d="M0 0 C0.66 0.33 1.32 0.66 2 1 C1.56300781 1.56203125 1.12601563 2.1240625 0.67578125 2.703125 C-0.9885403 4.984293 -2.39996813 7.30628095 -3.8125 9.75 C-7.04507204 15.19942319 -10.50441029 20.50441029 -15 25 C-13.76511822 15.12094574 -6.83005258 6.83005258 0 0 Z " fill="#A85933" transform="translate(198,112)"/>
<path d="M0 0 C0.66 0 1.32 0 2 0 C0.40226118 4.76566923 -2.25183351 8.49963263 -5.125 12.5625 C-6.11823997 13.97973173 -7.11041755 15.39770857 -8.1015625 16.81640625 C-8.59172852 17.51781738 -9.08189453 18.21922852 -9.58691406 18.94189453 C-10.89389403 20.84546072 -12.15642201 22.76845669 -13.3984375 24.71484375 C-14.09195313 25.79894531 -14.78546875 26.88304688 -15.5 28 C-16.1084375 28.969375 -16.716875 29.93875 -17.34375 30.9375 C-17.8903125 31.618125 -18.436875 32.29875 -19 33 C-19.99 33 -20.98 33 -22 33 C-12.62228603 18.76047941 -12.62228603 18.76047941 -7.625 12 C-4.76335261 8.12461112 -2.26617251 4.24907346 0 0 Z " fill="#E8B139" transform="translate(222,0)"/>
<path d="M0 0 C7.59 0.33 15.18 0.66 23 1 C22.08863775 4.64544898 21.06812469 6.93507963 19.1875 10.125 C18.68605469 10.99382812 18.18460938 11.86265625 17.66796875 12.7578125 C15.92369929 15.10256817 14.69215998 15.9605109 12 17 C14.04361082 11.27169694 17.46174723 6.91423996 21 2 C10.11 2.495 10.11 2.495 -1 3 C-0.67 2.01 -0.34 1.02 0 0 Z " fill="#AC6B11" transform="translate(198,67)"/>
<path d="M0 0 C1.3005835 0.01869141 2.60116699 0.03738281 3.94116211 0.05664062 C4.98741005 0.06226013 4.98741005 0.06226013 6.05479431 0.06799316 C7.52500619 0.08140426 8.99514846 0.10917669 10.46484375 0.15039062 C12.71478569 0.21278745 14.96192453 0.23234001 17.21264648 0.24414062 C28.16348721 0.38454486 28.16348721 0.38454486 31.65600586 2.71289062 C7.65600586 2.71289062 7.65600586 2.71289062 5.60522461 2.46679688 C0.81888967 2.04173418 0.81888967 2.04173418 -3.26586914 4.27148438 C-4.74915257 6.0267031 -6.09145818 7.78742357 -7.34399414 9.71289062 C-7.34399414 4.46933258 -5.19187098 1.10683093 0 0 Z " fill="#65411F" transform="translate(105.343994140625,154.287109375)"/>
<path d="M0 0 C7.26 0 14.52 0 22 0 C20.35 1.65 18.7 3.3 17 5 C16.443125 4.2265625 16.443125 4.2265625 15.875 3.4375 C14.02517675 1.67488012 14.02517675 1.67488012 11.25 2.3125 C10.1775 2.539375 9.105 2.76625 8 3 C5.66697011 3.03762951 3.33286681 3.04665734 1 3 C0.67 2.01 0.34 1.02 0 0 Z " fill="#673B23" transform="translate(138,156)"/>
<path d="M0 0 C0.33 0.66 0.66 1.32 1 2 C1.66 2 2.32 2 3 2 C3 2.66 3 3.32 3 4 C-4.92 4 -12.84 4 -21 4 C-20.67 3.34 -20.34 2.68 -20 2 C-19.42967041 1.97494385 -18.85934082 1.9498877 -18.27172852 1.92407227 C-15.70173843 1.80843451 -13.13214473 1.68556376 -10.5625 1.5625 C-9.66466797 1.52318359 -8.76683594 1.48386719 -7.84179688 1.44335938 C-6.98779297 1.40146484 -6.13378906 1.35957031 -5.25390625 1.31640625 C-4.46314697 1.27974854 -3.6723877 1.24309082 -2.85766602 1.20532227 C-0.98598559 1.19436743 -0.98598559 1.19436743 0 0 Z " fill="#AD590C" transform="translate(98,140)"/>
<path d="M0 0 C0.33 0.99 0.66 1.98 1 3 C-0.4765625 5.671875 -0.4765625 5.671875 -2.625 8.75 C-3.35976562 9.8121875 -4.09453125 10.874375 -4.8515625 11.96875 C-5.56054688 12.9690625 -6.26953125 13.969375 -7 15 C-7.81597656 16.16015625 -7.81597656 16.16015625 -8.6484375 17.34375 C-9.75451661 18.9037691 -10.87521169 20.45341607 -12 22 C-13 19 -13 19 -12.0625 16.8125 C-11.5365625 15.9153125 -11.5365625 15.9153125 -11 15 C-10.34 15 -9.68 15 -9 15 C-8.773125 14.34 -8.54625 13.68 -8.3125 13 C-6.24231985 8.26815967 -3.66733454 3.66733454 0 0 Z " fill="#A7620A" transform="translate(125,99)"/>
<path d="M0 0 C5.61 0.33 11.22 0.66 17 1 C17.33 1.99 17.66 2.98 18 4 C17.34 4.66 16.68 5.32 16 6 C16 5.01 16 4.02 16 3 C10.72 3 5.44 3 0 3 C0 2.01 0 1.02 0 0 Z " fill="#D69E47" transform="translate(179,66)"/>
<path d="M0 0 C5.94 0 11.88 0 18 0 C18 0.33 18 0.66 18 1 C16.96359375 1.13277344 15.9271875 1.26554688 14.859375 1.40234375 C13.48956735 1.58060639 12.11977656 1.75899862 10.75 1.9375 C10.06808594 2.02451172 9.38617188 2.11152344 8.68359375 2.20117188 C5.39963389 2.6315938 2.18809706 3.08794131 -1 4 C-0.67 2.68 -0.34 1.36 0 0 Z " fill="#774709" transform="translate(109,144)"/>
<path d="M0 0 C0.66 0 1.32 0 2 0 C-0.30309271 6.20063422 -3.18006461 10.44060165 -8 15 C-7.341781 11.21298657 -5.61103933 8.46974164 -3.5625 5.25 C-2.94503906 4.26515625 -2.32757813 3.2803125 -1.69140625 2.265625 C-1.13324219 1.51796875 -0.57507813 0.7703125 0 0 Z " fill="#AA5F0A" transform="translate(107,125)"/>
<path d="M0 0 C0 6.19331518 -5.079542 10.59741447 -9 15 C-9 11.65580848 -8.52480606 10.93159679 -6.625 8.3125 C-6.18414062 7.68988281 -5.74328125 7.06726563 -5.2890625 6.42578125 C-4.86367187 5.95527344 -4.43828125 5.48476562 -4 5 C-3.34 5 -2.68 5 -2 5 C-1.855625 4.360625 -1.71125 3.72125 -1.5625 3.0625 C-1 1 -1 1 0 0 Z M-11 15 C-11 15.99 -11 16.98 -11 18 C-11.99 18.495 -11.99 18.495 -13 19 C-12.34 17.68 -11.68 16.36 -11 15 Z " fill="#984E2C" transform="translate(200,106)"/>
<path d="M0 0 C0.99 0.33 1.98 0.66 3 1 C2.38722388 3.96175123 1.74627478 5.38058783 0 8 C-0.66 8 -1.32 8 -2 8 C-2.33 8.99 -2.66 9.98 -3 11 C-3.625 9.1875 -3.625 9.1875 -4 7 C-3.34 6.01 -2.68 5.02 -2 4 C-1.31822584 2.67432801 -0.64808564 1.34246312 0 0 Z " fill="#824222" transform="translate(212,82)"/>
<path d="M0 0 C0.66 0.33 1.32 0.66 2 1 C-2.95 7.93 -2.95 7.93 -8 15 C-8.33 14.01 -8.66 13.02 -9 12 C-7.63671875 9.84375 -7.63671875 9.84375 -5.6875 7.5 C-3.66149764 5.03427705 -1.77307022 2.65960533 0 0 Z " fill="#DC992D" transform="translate(187,52)"/>
<path d="M0 0 C0.66 0.33 1.32 0.66 2 1 C1.16855469 1.68835938 1.16855469 1.68835938 0.3203125 2.390625 C-0.40414062 3.00421875 -1.12859375 3.6178125 -1.875 4.25 C-2.59429688 4.85328125 -3.31359375 5.4565625 -4.0546875 6.078125 C-5.97052118 7.97087634 -6.96449045 9.53657727 -8 12 C-8.33 11.01 -8.66 10.02 -9 9 C-7.63671875 6.9921875 -7.63671875 6.9921875 -5.6875 4.875 C-5.05199219 4.17117187 -4.41648437 3.46734375 -3.76171875 2.7421875 C-2 1 -2 1 0 0 Z " fill="#341407" transform="translate(544,124)"/>
<path d="M0 0 C-0.66 0.66 -1.32 1.32 -2 2 C-2.99 2 -3.98 2 -5 2 C-5 2.66 -5 3.32 -5 4 C-6.32 4 -7.64 4 -9 4 C-8.67 3.01 -8.34 2.02 -8 1 C-5.07175348 0.02391783 -3.04386724 -0.08226668 0 0 Z " fill="#AD6710" transform="translate(115,150)"/>
<path d="M0 0 C0 3 0 3 -2.5 5.6875 C-3.325 6.450625 -4.15 7.21375 -5 8 C-5 5 -5 5 -2.5 2.3125 C-1.675 1.549375 -0.85 0.78625 0 0 Z " fill="#985816" transform="translate(216,76)"/>
<path d="M0 0 C0.99 0 1.98 0 3 0 C2.3125 1.9375 2.3125 1.9375 1 4 C-1.625 4.75 -1.625 4.75 -4 5 C-2.1875 2.5 -2.1875 2.5 0 0 Z " fill="#BB7B16" transform="translate(145,69)"/>
<path d="M0 0 C-0.66 1.32 -1.32 2.64 -2 4 C-2 3.01 -2 2.02 -2 1 C-4.64 1 -7.28 1 -10 1 C-10 0.67 -10 0.34 -10 0 C-6.30458414 -0.95024979 -3.69541586 -0.95024979 0 0 Z " fill="#CD9638" transform="translate(197,68)"/>
</svg>
